<svg width="1920" height="1080" viewBox="0 0 1920 1080" fill="none" xmlns="http://www.w3.org/2000/svg">
<ellipse cx="756" cy="459.5" rx="50" ry="51.5" fill="white" fill-opacity="0.22"/>
<path d="M860 380.5C864 339.3 881.667 351 890 362C976 328.5 1002 408 981 449.5L997 460.5C997.4 467.7 986.5 476.5 981 480L967 467.5C866.5 514.5 852.5 416.5 872 391L860 380.5Z" fill="white" fill-opacity="0.22"/>
<ellipse cx="1073.5" cy="461" rx="53.5" ry="53" fill="white" fill-opacity="0.22"/>
<ellipse cx="1205.5" cy="480" rx="37.5" ry="40" fill="white" fill-opacity="0.22"/>
<ellipse cx="948" cy="550" rx="49" ry="51" fill="white" fill-opacity="0.22"/>
<path d="M1048 552C1062.4 533.6 1082.67 544.333 1091 552C1088.2 560.4 1093.5 570.5 1096.5 574.5C1100.9 594.9 1080.67 602.667 1070 604C1042.8 605.2 1041.33 584.833 1044 574.5C1046 572.9 1048.5 565.5 1049.5 562C1047.9 559.2 1047.83 554.167 1048 552Z" fill="white" fill-opacity="0.22"/>
<ellipse cx="815.496" cy="570.153" rx="49.1694" ry="78.5731" transform="rotate(45.4714 815.496 570.153)" fill="white" fill-opacity="0.22"/>
</svg>
